<?xml version="1.0" encoding="UTF-8"?>
<svg id="Layer_1" data-name="Layer 1" xmlns="http://www.w3.org/2000/svg" viewBox="0 0 206.72 93">
  <defs>
    <style>
      .cls-1 {
        fill: #fff;
      }

      .cls-2 {
        letter-spacing: -.06em;
      }

      .cls-2, .cls-3, .cls-4 {
        fill: #231f20;
      }

      .cls-5 {
        font-family: TimesNewRomanPSMT, 'Times New Roman';
        font-size: 20.13px;
      }

      .cls-3 {
        letter-spacing: -.02em;
      }

      .cls-6 {
        letter-spacing: -.02em;
      }

      .cls-7 {
        fill: #46bcec;
      }
    </style>
  </defs>
  <path class="cls-4" d="M18.21,53.6c.14,12.16,.29,24.33,.43,36.49,8,1.51,18.64,2.9,31.22,2.91,14.25,0,26.13-1.76,34.68-3.55,.14-15.28,.29-30.57,.43-45.85,6.07-1.51,12.14-3.01,18.21-4.52-4.48-8.93-8.96-17.87-13.44-26.8-7.8-4.09-15.61-8.18-23.41-12.27-2.81,.99-7.98,2.49-14.74,2.58-6.95,.1-12.31-1.32-15.17-2.26-7.66,3.98-15.32,7.97-22.98,11.95C8.96,21.2,4.48,30.14,0,39.07c5.78,1.61,11.56,3.23,17.34,4.84,.29,3.23,.58,6.46,.87,9.69Z"/>
  <path class="cls-7" d="M34.11,32.68c.43-.31,.35-.63,.74-1.21,.24-.35,.65-.81,1.44-1.24,.47-.13,1.13-.38,1.71-.88,.67-.58,.79-1.12,1.08-1.52,.46-.64,1.62-1.28,4.75-1.21,.39-.46,1.17-1.24,2.47-1.72,1-.37,1.8-.36,3.3-.34,.57,0,2.18,.02,2.28,.44,0,.03,0,.06,0,.07,.58-.29,1.71-.78,3.2-.78,3.03,0,4.88,1.98,5.13,2.26,.59-.04,2.17-.07,3.77,.75,2.08,1.07,2.69,2.83,2.81,3.23,.6,.02,1.38,.12,2.19,.44,2.58,1.01,3.32,3.38,3.44,3.8,.28,.04,.99,.17,1.59,.68,.88,.75,.86,1.72,.85,1.89,.39,.09,2.9,.73,4.02,2.89,.7,1.35,.49,2.59,.37,3.1,.67,.25,1.54,.66,1.61,1.27,.07,.63-.76,.97-.64,1.58,.13,.62,1.06,.54,1.79,1.34,.93,1.03,.6,2.5,.53,2.79-.27,1.09-.88,1.13-.89,1.96-.01,1.02,.9,1.16,1.13,2.4,.03,.18,.29,1.55-.62,2.32-.75,.63-1.81,.45-1.97,.96-.1,.32,.29,.44,.39,1.1,.03,.21,.06,.69-.22,1.19-.07,.12-.49,.87-1.27,1.01-.43,.07-.63-.1-.78,.03-.29,.23,.42,.85,.32,1.69-.06,.51-.4,.84-1.08,1.52-.71,.7-1.15,1.14-1.79,1.17-.52,.02-.77-.24-1.31-.1-.28,.07-.47,.21-.77,.47-.76,.66-.95,1.02-1.26,1.3-.85,.77-2.28,.74-3.46,.72-.97-.02-1.7-.03-2.45-.43-.66-.35-.93-.78-1.51-.76-.48,.01-.61,.31-1.11,.56-1.29,.63-2.42-.34-3.48,.12-.58,.25-.71,.75-1.22,2.34-1.14,3.51-1.09,2.95-1.26,3.75-.38,1.76-.11,3.93,.46,8.2,.36,2.7,.64,4.03,1.56,4.9,1.5,1.42,1.98,1.78,1.98,1.78,.72,.53,1.03,.65,.99,.85-.11,.51-2.39,.9-4.17,.3-.06-.02-.48-.2-1.33-.54-1.59-.66-1.95-.82-2.03-.74-.17,.18,1.19,1.37,1.27,1.43,.82,.71,1.09,.74,1.08,.92-.04,.96-7.72,2.01-8.25,.81-.08-.18,.22-.7,.81-1.73,.56-.97,.91-1.46,.82-1.51-.14-.09-.92,1.18-2.55,1.87-1.29,.54-2.53,.48-3.56,.42-.92-.05-2.93-.27-2.99-.78-.04-.37,.94-.72,1.28-.86,3.79-1.58,4.51-8.93,4.55-9.42,.51-5.85-2.81-10.26-4.07-11.77-.72,.35-2.38,1.06-4.58,.98-3.52-.14-5.63-2.21-6.01-2.6-4.17-.37-5.24-1.06-5.37-1.66-.09-.41,.23-.93-.13-1.25-.37-.32-.93-.02-1.58-.31-.57-.25-.78-.76-1-1.3-.52-1.25,.03-1.69-.52-2.42-.43-.57-.8-.36-1.52-1.06-.87-.85-1.01-1.83-1.03-2.04-.04-.35-.13-1.16,.37-1.94,.29-.45,.64-.67,.57-1.06-.06-.35-.38-.39-.46-.8-.09-.47,.24-.88,.31-.97,.37-.47,.78-.43,.93-.77,.15-.34-.11-.63-.3-1.03,0,0-.47-1.01-.08-2.22,.48-1.46,2.53-2.46,2.53-2.46h0s-.72-1.52-.08-2.37c.45-.6,1.3-.48,1.45-1.01,.1-.38-.31-.53-.3-1.1,.01-.57,.44-1,.57-1.13,.67-.67,1.33-.49,1.71-1.02,.28-.4,0-.63,.04-1.41,.06-1.2,.76-2.08,.96-2.33,.36-.44,.97-1.19,2.04-1.48,.84-.23,1.29,.01,1.82-.36Z"/>
  <text class="cls-5" transform="translate(32.3 65.68) rotate(.15) scale(.99 1)"><tspan class="cls-1" x="0" y="0">THE</tspan><tspan class="cls-4" x="39.14" y="0" xml:space="preserve">   COMFO</tspan><tspan class="cls-2" x="125.85" y="0">R</tspan><tspan class="cls-3" x="138.07" y="0">T</tspan><tspan class="cls-4" x="150.01" y="0"> </tspan><tspan class="cls-4"><tspan x="0" y="24.16" xml:space="preserve">                </tspan><tspan class="cls-6" x="80.54" y="24.16"> </tspan><tspan x="85.21" y="24.16">WEAR</tspan></tspan></text>
</svg>